<svg id="Capa_1" enable-background="new 0 0 512 512" height="18px" viewBox="0 0 512 512" width="18px" xmlns="http://www.w3.org/2000/svg"><g><path d="m135 90h100c8.284 0 15-6.716 15-15s-6.716-15-15-15h-100c-8.284 0-15 6.716-15 15s6.716 15 15 15z"/><path d="m75 150h220c8.284 0 15-6.716 15-15s-6.716-15-15-15h-220c-8.284 0-15 6.716-15 15s6.716 15 15 15z"/><path d="m155 300h-80c-8.284 0-15 6.716-15 15s6.716 15 15 15h80c8.284 0 15-6.716 15-15s-6.716-15-15-15z"/><path d="m503.858 77.724c14.255-20.358 9.307-48.418-11.051-62.672-20.358-14.255-48.417-9.307-62.672 11.051l-60.135 85.882v-96.985c0-8.284-6.716-15-15-15h-340c-8.284 0-15 6.716-15 15v442c0 30.327 24.673 55 55 55h320c30.327 0 55-24.673 55-55v-40c0-8.284-6.716-15-15-15h-45v-133.106zm-49.149-34.414c4.752-6.786 14.105-8.435 20.891-3.684 6.786 4.752 8.436 14.105 3.684 20.891l-20.075 28.67-24.575-17.207zm-374.709 373.69v40c0 13.785-11.215 25-25 25s-25-11.215-25-25v-427h310v124.829l-30.34 43.33c.219-1.019.34-2.075.34-3.159 0-8.284-6.716-15-15-15h-220c-8.284 0-15 6.716-15 15s6.716 15 15 15h220c2.944 0 5.681-.86 7.998-2.325l-22.635 32.325h-205.363c-8.284 0-15 6.716-15 15s6.716 15 15 15h192.087l-23.151 70h-38.936c-8.284 0-15 6.716-15 15s6.716 15 15 15h48.455c3.529.342 7.271-.587 10.616-3.229l75.929-59.967v95.196h-245c-8.284 0-15 6.716-15 15zm231.587-125.984-26.872 21.223 10.752-32.51zm88.413 140.984v25c0 13.785-11.215 25-25 25h-271.017c3.845-7.505 6.017-16.004 6.017-25v-25zm-66.979-162.599-24.574-17.207 108.98-155.64 24.575 17.207z"/></g></svg>